<svg width="18" height="18" viewBox="0 0 18 18" fill="none" xmlns="http://www.w3.org/2000/svg">
<path d="M12.5026 16.4624C8.45569 18.5956 3.43436 17.0525 1.31018 13.0227C-0.81399 8.99299 0.748497 3.97934 4.79744 1.84504C5.93955 1.243 7.1679 0.922172 8.45196 0.888347C8.58158 0.884325 8.70144 0.954896 8.76191 1.06963C8.82239 1.18436 8.81288 1.32313 8.73631 1.42779C7.02539 3.78807 6.80398 6.84731 8.15679 9.4137C9.5096 11.9801 12.1586 13.5262 15.0728 13.4485C15.2024 13.4445 15.3222 13.5151 15.3827 13.6298C15.4432 13.7446 15.4337 13.8833 15.3571 13.988C14.6036 15.0282 13.6427 15.8614 12.5026 16.4624ZM5.11574 2.4489C1.40236 4.40632 -0.0324898 9.00545 1.91661 12.7031C3.86572 16.4007 8.47092 17.8159 12.1843 15.8585C13.0293 15.4131 13.7653 14.8296 14.3834 14.1206C11.4921 13.9573 8.91686 12.3208 7.55238 9.7323C6.1879 7.14377 6.29308 4.09435 7.79233 1.61673C6.85896 1.72291 5.9607 2.0035 5.11574 2.4489Z" fill="#F8F8F8"/>
<path fill-rule="evenodd" clip-rule="evenodd" d="M14.3605 3.03228L13.8549 4.14353C13.7069 4.46882 13.399 4.69254 13.0439 4.73278L11.8308 4.87027L12.7314 5.69454C12.995 5.93582 13.1126 6.2978 13.0412 6.64797L12.7971 7.84419L13.8593 7.24236C14.1702 7.06619 14.5509 7.06619 14.8618 7.24236L15.924 7.84419L15.6799 6.64797C15.6085 6.2978 15.7261 5.93583 15.9897 5.69454L16.8903 4.87027L15.6772 4.73278C15.3221 4.69254 15.0142 4.46883 14.8662 4.14353L14.3605 3.03228ZM14.7076 2.26054C14.5721 1.96268 14.149 1.96268 14.0135 2.26054L13.2765 3.88033C13.221 4.00231 13.1055 4.0862 12.9723 4.1013L11.2041 4.30169C10.8789 4.33854 10.7482 4.74094 10.9896 4.96188L12.3023 6.16335C12.4012 6.25384 12.4453 6.38958 12.4185 6.52089L12.0627 8.26453C11.9972 8.58517 12.3395 8.83386 12.6242 8.67255L14.1726 7.79532C14.2892 7.72925 14.4319 7.72925 14.5485 7.79532L16.0969 8.67255C16.3816 8.83386 16.7239 8.58517 16.6584 8.26453L16.3026 6.52089C16.2758 6.38958 16.3199 6.25384 16.4188 6.16335L17.7315 4.96188C17.9729 4.74094 17.8422 4.33854 17.517 4.30169L15.7488 4.1013C15.6156 4.0862 15.5001 4.00231 15.4446 3.88033L14.7076 2.26054Z" fill="#F8F8F8"/>
</svg>
