<svg width="23" height="18" viewBox="0 0 23 18" fill="none" xmlns="http://www.w3.org/2000/svg">
<path d="M18.2828 13.1583C18.0743 13.1583 17.8709 13.1879 17.6752 13.2406C17.7088 13.0303 17.7313 12.8174 17.7313 12.6002C17.7313 12.3631 17.7065 12.1319 17.6673 11.9062C18.5337 11.048 19.0306 9.87237 19.0306 8.63286C19.0306 6.06547 16.9462 3.97677 14.3842 3.97677C12.881 3.97677 11.4757 4.71452 10.6145 5.92596C9.81056 5.46381 8.8911 5.21115 7.94746 5.21115C4.99509 5.21115 2.59312 7.61808 2.59312 10.5766C2.59312 10.6462 2.5961 10.7186 2.59909 10.7915C1.07206 11.2256 0 12.6182 0 14.2447C0 16.2355 1.61649 17.8553 3.60331 17.8553H18.2851C19.5779 17.8538 20.6292 16.7999 20.6292 15.5045C20.6292 14.2108 19.5767 13.1583 18.2828 13.1583ZM14.3842 4.85232C16.4644 4.85232 18.1568 6.54828 18.1568 8.63286C18.1568 9.47763 17.8721 10.2851 17.3663 10.9343C16.7315 9.54404 15.3317 8.57372 13.7067 8.57372C13.4524 8.57372 13.199 8.60023 12.9481 8.64782C12.7058 8.01239 12.3439 7.42769 11.8868 6.94274C11.7148 6.75492 11.5262 6.58619 11.331 6.42644C12.0299 5.448 13.1674 4.85232 14.3842 4.85232ZM18.2828 16.9797H3.60331C2.09819 16.9797 0.873807 15.7527 0.873807 14.2447C0.873807 12.9123 1.82384 11.7851 3.1327 11.5648C3.14238 11.5631 3.15105 11.5594 3.16058 11.5571C3.17537 11.5537 3.19002 11.5502 3.2041 11.5451C3.21761 11.5405 3.23041 11.5346 3.24321 11.5286C3.25629 11.5226 3.26909 11.5166 3.28133 11.5092C3.29384 11.5021 3.30536 11.4938 3.31688 11.4853C3.32797 11.477 3.33907 11.469 3.34931 11.4599C3.35997 11.4502 3.36964 11.4399 3.37932 11.4294C3.3887 11.4194 3.39795 11.4092 3.40634 11.3983C3.41487 11.3872 3.42227 11.3752 3.42966 11.3636C3.43706 11.3516 3.44431 11.3396 3.45057 11.3271C3.45683 11.3145 3.4618 11.3017 3.46678 11.2886C3.4719 11.2752 3.47688 11.2621 3.48058 11.2481C3.48442 11.2344 3.48684 11.2205 3.48925 11.2062C3.49167 11.1923 3.49395 11.1783 3.49494 11.1638C3.49594 11.1492 3.49551 11.1344 3.49508 11.1196C3.49466 11.1096 3.49608 11.0999 3.49508 11.0899C3.47588 10.8947 3.46692 10.7314 3.46692 10.5766C3.46692 8.10089 5.47694 6.08671 7.94746 6.08671C9.19858 6.08671 10.3998 6.61455 11.2476 7.53941C11.7074 8.02749 12.0521 8.63186 12.2441 9.28753L12.2444 9.2881C12.2467 9.2958 12.2506 9.30264 12.2532 9.31005C12.2606 9.33057 12.268 9.35166 12.2779 9.37047C12.2805 9.37503 12.2839 9.37873 12.2865 9.38329C12.2984 9.40382 12.3109 9.42405 12.3257 9.44201C12.3303 9.44742 12.336 9.4517 12.3405 9.45683C12.3547 9.4725 12.3693 9.48846 12.3855 9.50186C12.4 9.51383 12.4162 9.52323 12.4321 9.53321C12.4398 9.53806 12.4466 9.54404 12.4546 9.54832C12.5476 9.59933 12.6582 9.61501 12.7672 9.58793C12.7737 9.58622 12.78 9.58622 12.7865 9.58423L12.7871 9.58394C13.088 9.49445 13.3975 9.44913 13.7067 9.44913C15.1972 9.44913 16.4462 10.4906 16.7719 11.8831C16.7738 11.8897 16.775 11.8968 16.7773 11.9034C16.8282 12.128 16.8575 12.3605 16.8575 12.6002C16.8575 13.0614 16.7616 13.504 16.5725 13.9167C16.5594 13.9349 16.5545 13.956 16.5449 13.9754C16.5343 13.9962 16.5227 14.0156 16.5159 14.0372C16.5056 14.0686 16.5025 14.1 16.4996 14.1322C16.4977 14.1535 16.4931 14.1738 16.4942 14.1951C16.4962 14.2311 16.5065 14.2653 16.517 14.2997C16.5224 14.3168 16.5235 14.3345 16.5309 14.351C16.5534 14.4009 16.5844 14.4477 16.6262 14.4879C16.6675 14.5272 16.7147 14.556 16.7645 14.5762C16.781 14.583 16.7986 14.583 16.8159 14.5879C16.8501 14.597 16.8839 14.6067 16.9192 14.6073C16.922 14.6073 16.9249 14.609 16.928 14.609C16.9619 14.609 16.9954 14.6007 17.0284 14.5927C17.0401 14.5902 17.0517 14.5907 17.0631 14.5873C17.1086 14.5725 17.1524 14.5506 17.192 14.5203C17.1937 14.5192 17.1945 14.5175 17.1962 14.5164C17.1968 14.5158 17.1977 14.5158 17.1982 14.5152C17.2224 14.497 17.2446 14.4762 17.2642 14.4534C17.5359 14.1826 17.8968 14.0338 18.2828 14.0338C19.0949 14.0338 19.7554 14.6936 19.7554 15.5045C19.7554 16.3179 19.0949 16.9797 18.2828 16.9797Z" fill="#424242"/>
<path d="M14.3854 2.45623C14.6266 2.45623 14.8223 2.26028 14.8223 2.01845V0.437778C14.8223 0.195945 14.6266 0 14.3854 0C14.1442 0 13.9485 0.195945 13.9485 0.437778V2.01845C13.9485 2.26028 14.1442 2.45623 14.3854 2.45623Z" fill="#424242"/>
<path d="M19.0522 4.3936C19.164 4.3936 19.2761 4.35084 19.3614 4.2652L20.4764 3.1471C20.6468 2.97609 20.6468 2.69892 20.4761 2.52805C20.3055 2.35733 20.0287 2.35705 19.8581 2.52834L18.743 3.64644C18.5727 3.81745 18.5727 4.09462 18.7433 4.26548C18.8287 4.35084 18.9404 4.3936 19.0522 4.3936Z" fill="#424242"/>
<path d="M22.5631 8.19394H20.9859C20.7447 8.19394 20.549 8.38989 20.549 8.63172C20.549 8.87355 20.7447 9.0695 20.9859 9.0695H22.5631C22.8043 9.0695 23 8.87355 23 8.63172C23 8.38989 22.8043 8.19394 22.5631 8.19394Z" fill="#424242"/>
<path d="M9.40878 4.26491C9.49411 4.35042 9.6059 4.39317 9.71768 4.39317C9.82947 4.39317 9.94126 4.35042 10.0266 4.26491C10.1973 4.09405 10.1973 3.81673 10.0266 3.64587L8.91101 2.52805C8.74034 2.35705 8.46386 2.35705 8.2932 2.52805C8.12253 2.69892 8.12253 2.97623 8.2932 3.1471L9.40878 4.26491Z" fill="#424242"/>
<g style="mix-blend-mode:multiply">
<path d="M13.6548 8.20665C13.4223 6.86982 11.7178 5.71221 10.8945 5.3005C11.1851 4.42866 14.0906 1.88568 17.214 3.99273C20.825 6.42872 19.0299 9.87769 18.013 10.8948C17.3738 8.2793 14.8412 8.01291 13.6548 8.20665Z" fill="#EBEBEB"/>
</g>
</svg>
